<?xml version="1.0" encoding="utf-8"?>
<!-- Generator: Adobe Illustrator 24.3.0, SVG Export Plug-In . SVG Version: 6.00 Build 0)  -->
<svg version="1.1" id="Layer_1" xmlns="http://www.w3.org/2000/svg" xmlns:xlink="http://www.w3.org/1999/xlink" x="0px" y="0px"
	 viewBox="0 0 51.9 51.9" style="enable-background:new 0 0 51.9 51.9;" xml:space="preserve">
<style type="text/css">
	.st0{fill:#FFFFFF;}
</style>
<g id="Layer_2_1_">
	<g>
		<path class="st0" d="M23.4,33.5L22.5,17h6.6l-0.9,16.4H23.4z M23.1,41.2v-4.9h5.4v4.9H23.1z"/>
	</g>
	<g>
		<path class="st0" d="M27.1,9.7c0.6,0.8,17.1,33.7,17.1,33.7H7c0,0,16.7-32.2,17.6-33.7C25.4,8.6,26.4,8.7,27.1,9.7z M25.8,1.5
			c-1.2,0-2.4,0.7-3,1.7L0.6,43.8c-0.6,1.1-0.6,2.4,0,3.4c0.6,1.1,1.7,1.7,3,1.7h44.6c1.2,0,2.4-0.7,3-1.7c0.6-1.1,0.6-2.4,0-3.4
			L28.8,3.2C28.2,2.2,27,1.5,25.8,1.5L25.8,1.5z"/>
	</g>
</g>
</svg>
